<svg width="88" height="30" viewBox="0 0 88 30" fill="none" xmlns="http://www.w3.org/2000/svg">
<path d="M13 9.5C13 11.8333 12.6111 13 9.5 13C6.38889 13 6 11.8333 6 9.5C6 7.16667 6.4375 6 9.5 6C12.5625 6 13 7.16667 13 9.5Z" fill="#347AE2" stroke="#347AE2" stroke-width="1.5" stroke-linecap="round" stroke-linejoin="round"/>
<path d="M13 20.5C13 22.8333 12.6111 24 9.5 24C6.38889 24 6 22.8333 6 20.5C6 18.1667 6.4375 17 9.5 17C12.5625 17 13 18.1667 13 20.5Z" fill="#347AE2" stroke="#347AE2" stroke-width="1.5" stroke-linecap="round" stroke-linejoin="round"/>
<path d="M24 20.5C24 22.8333 23.6111 24 20.5 24C17.3889 24 17 22.8333 17 20.5C17 18.1667 17.4375 17 20.5 17C23.5625 17 24 18.1667 24 20.5Z" fill="#347AE2" stroke="#347AE2" stroke-width="1.5" stroke-linecap="round" stroke-linejoin="round"/>
<path d="M37.78 20.16H42.48V22H35.5V8.1H37.78V20.16ZM50.9267 22.14C49.6334 22.14 48.4401 21.84 47.3467 21.24C46.2667 20.6267 45.4067 19.78 44.7667 18.7C44.1401 17.6067 43.8267 16.38 43.8267 15.02C43.8267 13.66 44.1401 12.44 44.7667 11.36C45.4067 10.28 46.2667 9.44 47.3467 8.84C48.4401 8.22667 49.6334 7.92 50.9267 7.92C52.2334 7.92 53.4267 8.22667 54.5067 8.84C55.6001 9.44 56.4601 10.28 57.0867 11.36C57.7134 12.44 58.0267 13.66 58.0267 15.02C58.0267 16.38 57.7134 17.6067 57.0867 18.7C56.4601 19.78 55.6001 20.6267 54.5067 21.24C53.4267 21.84 52.2334 22.14 50.9267 22.14ZM50.9267 20.16C51.8467 20.16 52.6667 19.9533 53.3867 19.54C54.1067 19.1133 54.6667 18.5133 55.0667 17.74C55.4801 16.9533 55.6867 16.0467 55.6867 15.02C55.6867 13.9933 55.4801 13.0933 55.0667 12.32C54.6667 11.5467 54.1067 10.9533 53.3867 10.54C52.6667 10.1267 51.8467 9.92 50.9267 9.92C50.0067 9.92 49.1867 10.1267 48.4667 10.54C47.7467 10.9533 47.1801 11.5467 46.7667 12.32C46.3667 13.0933 46.1667 13.9933 46.1667 15.02C46.1667 16.0467 46.3667 16.9533 46.7667 17.74C47.1801 18.5133 47.7467 19.1133 48.4667 19.54C49.1867 19.9533 50.0067 20.16 50.9267 20.16ZM70.5303 12.1C70.1703 11.4067 69.6703 10.8867 69.0303 10.54C68.3903 10.18 67.6503 10 66.8103 10C65.8903 10 65.0703 10.2067 64.3503 10.62C63.6303 11.0333 63.0636 11.62 62.6503 12.38C62.2503 13.14 62.0503 14.02 62.0503 15.02C62.0503 16.02 62.2503 16.9067 62.6503 17.68C63.0636 18.44 63.6303 19.0267 64.3503 19.44C65.0703 19.8533 65.8903 20.06 66.8103 20.06C68.0503 20.06 69.057 19.7133 69.8303 19.02C70.6036 18.3267 71.077 17.3867 71.2503 16.2H66.0303V14.38H73.6903V16.16C73.5436 17.24 73.157 18.2333 72.5303 19.14C71.917 20.0467 71.1103 20.7733 70.1103 21.32C69.1236 21.8533 68.0236 22.12 66.8103 22.12C65.5036 22.12 64.3103 21.82 63.2303 21.22C62.1503 20.6067 61.2903 19.76 60.6503 18.68C60.0236 17.6 59.7103 16.38 59.7103 15.02C59.7103 13.66 60.0236 12.44 60.6503 11.36C61.2903 10.28 62.1503 9.44 63.2303 8.84C64.3236 8.22667 65.517 7.92 66.8103 7.92C68.2903 7.92 69.6036 8.28667 70.7503 9.02C71.9103 9.74 72.7503 10.7667 73.2703 12.1H70.5303ZM80.9191 22.18C79.8791 22.18 78.9391 21.9467 78.0991 21.48C77.2591 21 76.5991 20.3333 76.1191 19.48C75.6391 18.6133 75.3991 17.6133 75.3991 16.48C75.3991 15.36 75.6457 14.3667 76.1391 13.5C76.6324 12.6333 77.3057 11.9667 78.1591 11.5C79.0124 11.0333 79.9657 10.8 81.0191 10.8C82.0724 10.8 83.0257 11.0333 83.8791 11.5C84.7324 11.9667 85.4057 12.6333 85.8991 13.5C86.3924 14.3667 86.6391 15.36 86.6391 16.48C86.6391 17.6 86.3857 18.5933 85.8791 19.46C85.3724 20.3267 84.6791 21 83.7991 21.48C82.9324 21.9467 81.9724 22.18 80.9191 22.18ZM80.9191 20.2C81.5057 20.2 82.0524 20.06 82.5591 19.78C83.0791 19.5 83.4991 19.08 83.8191 18.52C84.1391 17.96 84.2991 17.28 84.2991 16.48C84.2991 15.68 84.1457 15.0067 83.8391 14.46C83.5324 13.9 83.1257 13.48 82.6191 13.2C82.1124 12.92 81.5657 12.78 80.9791 12.78C80.3924 12.78 79.8457 12.92 79.3391 13.2C78.8457 13.48 78.4524 13.9 78.1591 14.46C77.8657 15.0067 77.7191 15.68 77.7191 16.48C77.7191 17.6667 78.0191 18.5867 78.6191 19.24C79.2324 19.88 79.9991 20.2 80.9191 20.2Z" fill="black"/>
</svg>
