<svg width="160" height="156" viewBox="0 0 160 156" fill="none" xmlns="http://www.w3.org/2000/svg">
<path d="M81.1125 0.0118756C37.0758 -0.740477 0.764236 34.3493 0.0118835 78.386C-0.415453 103.355 10.7133 125.796 28.4328 140.72C29.5914 139.709 30.8343 138.782 32.2156 138.029L56.011 125.05C59.1318 123.347 61.0758 120.075 61.0758 116.518V106.768C61.0758 106.768 54.091 98.4136 51.4277 86.8063C49.2188 85.3768 47.7381 82.9061 47.7381 80.0923V69.4209C47.7381 67.0736 48.7824 64.976 50.4045 63.5074V48.0812C50.4045 48.0812 47.2356 24.0751 79.7462 24.0751C112.257 24.0751 109.088 48.0812 109.088 48.0812V63.5074C110.713 64.976 111.754 67.0736 111.754 69.4209V80.0923C111.754 83.6795 109.347 86.6979 106.079 87.7061C104.258 93.3668 101.631 98.7627 98.1578 103.668C97.2821 104.905 96.4635 105.952 95.7473 106.768V116.765C95.7473 120.445 97.8268 123.813 101.119 125.456L126.6 138.195C128.129 138.959 129.51 139.925 130.783 141C147.967 126.669 159.068 105.242 159.481 81.1125C160.239 37.0758 125.152 0.764228 81.1125 0.0118756Z" fill="#E9E9E9"/>
<circle cx="136" cy="137" r="19" fill="white"/>
<path d="M115.25 136C115.25 125.093 124.093 116.25 135 116.25C145.907 116.25 154.75 125.093 154.75 136C154.75 146.907 145.907 155.75 135 155.75C124.093 155.75 115.25 146.907 115.25 136ZM118.083 136C118.083 145.343 125.657 152.917 135 152.917C144.343 152.917 151.917 145.343 151.917 136C151.917 126.657 144.343 119.083 135 119.083C125.657 119.083 118.083 126.657 118.083 136Z" fill="#04C45C" stroke="white" stroke-width="0.5"/>
<path d="M135.898 124.904L135.898 124.904C135.89 124.898 135.886 124.895 135.878 124.889L135.898 124.904ZM135.898 124.904C135.934 124.934 135.968 124.965 136 124.997L136.177 124.82M135.898 124.904L136.178 124.821L136.177 124.82M134.437 124.433C134.443 124.431 134.45 124.428 134.456 124.426C134.476 124.419 134.496 124.411 134.516 124.405C134.534 124.4 134.553 124.395 134.571 124.391C134.578 124.389 134.585 124.388 134.592 124.386C134.599 124.384 134.606 124.382 134.613 124.38C134.633 124.375 134.654 124.37 134.674 124.366C134.696 124.361 134.719 124.358 134.741 124.355C134.748 124.354 134.755 124.353 134.763 124.352L134.437 124.433ZM134.437 124.433C134.43 124.435 134.423 124.438 134.416 124.44M134.437 124.433L134.416 124.44M134.362 124.46C134.344 124.468 134.327 124.476 134.309 124.485C134.303 124.488 134.297 124.491 134.29 124.494L135.202 124.6C135.181 124.597 135.171 124.595 135.163 124.594C135.155 124.592 135.15 124.591 135.14 124.59L135.14 124.59C135.047 124.581 134.953 124.581 134.86 124.59L134.86 124.59C134.85 124.591 134.845 124.592 134.836 124.594C134.828 124.595 134.817 124.597 134.798 124.6L134.798 124.6C134.786 124.601 134.777 124.603 134.768 124.604C134.75 124.606 134.738 124.608 134.724 124.611L134.723 124.611C134.71 124.613 134.699 124.616 134.682 124.621C134.674 124.623 134.665 124.625 134.653 124.628L134.653 124.628C134.64 124.631 134.631 124.634 134.623 124.636C134.609 124.639 134.6 124.641 134.589 124.645L134.589 124.645C134.576 124.649 134.564 124.653 134.547 124.659C134.54 124.661 134.532 124.665 134.522 124.668L134.522 124.668C134.509 124.673 134.5 124.676 134.492 124.679C134.478 124.684 134.469 124.687 134.458 124.691L134.362 124.46ZM134.362 124.46C134.38 124.453 134.398 124.447 134.416 124.44M134.362 124.46L134.416 124.44M135.638 124.46L135.542 124.691C135.531 124.686 135.52 124.683 135.505 124.677C135.497 124.675 135.489 124.672 135.479 124.668L135.479 124.668C135.468 124.664 135.459 124.661 135.451 124.658C135.435 124.652 135.424 124.648 135.411 124.645L135.411 124.645C135.4 124.641 135.392 124.639 135.378 124.636C135.37 124.634 135.36 124.632 135.347 124.628L135.347 124.628C135.335 124.625 135.326 124.623 135.318 124.621C135.301 124.616 135.29 124.613 135.277 124.611L135.326 124.366L135.872 124.581C135.865 124.577 135.859 124.574 135.853 124.57C135.846 124.566 135.839 124.562 135.833 124.558C135.817 124.548 135.802 124.539 135.786 124.53C135.767 124.52 135.747 124.511 135.728 124.502C135.722 124.499 135.716 124.497 135.71 124.494C135.704 124.491 135.697 124.488 135.691 124.485C135.674 124.476 135.656 124.468 135.638 124.46ZM135.638 124.46C135.619 124.453 135.6 124.446 135.582 124.439C135.575 124.437 135.569 124.435 135.563 124.433C135.556 124.431 135.55 124.428 135.543 124.426C135.524 124.419 135.504 124.411 135.484 124.405L135.847 124.867C135.837 124.859 135.829 124.853 135.822 124.848C135.807 124.837 135.798 124.83 135.787 124.822L135.786 124.822C135.775 124.814 135.766 124.809 135.751 124.8C135.744 124.796 135.735 124.791 135.724 124.785L135.724 124.784C135.712 124.777 135.704 124.772 135.696 124.768C135.685 124.761 135.678 124.756 135.668 124.751C135.655 124.744 135.645 124.739 135.628 124.731C135.621 124.728 135.613 124.724 135.603 124.72L135.603 124.72C135.593 124.715 135.584 124.711 135.577 124.708C135.563 124.7 135.553 124.696 135.541 124.691L135.638 124.46ZM136.177 124.82C136.138 124.782 136.098 124.745 136.056 124.711L134.122 124.889C134.115 124.895 134.11 124.898 134.102 124.904L133.944 124.711L134.102 124.904C134.067 124.934 134.032 124.965 134 124.997L133.994 125.003L133.993 125.004L127.332 131.665C126.779 132.218 126.779 133.115 127.332 133.668C127.885 134.222 128.782 134.222 129.335 133.668L133.157 129.847L133.584 129.42V130.024V146C133.584 146.782 134.218 147.417 135 147.417C135.783 147.417 136.417 146.782 136.417 146V130.024V129.42L136.844 129.847L140.665 133.668C141.218 134.222 142.115 134.222 142.669 133.668C143.222 133.115 143.222 132.218 142.669 131.665L136.005 125.002C136.004 125 136.002 124.999 136 124.997L136.177 124.82ZM136.013 125.009C136.013 125.009 136.013 125.008 136.011 125.007L136.012 125.008L136.013 125.009L136.013 125.009L136.013 125.009Z" fill="#04C45C" stroke="white" stroke-width="0.5"/>
</svg>
